HIERARCHY
ROOT Hips
{
	OFFSET 0.00 0.00 0.00
	CHANNELS 6 Xposition Yposition Zposition Xrotation Yrotation Zrotation
	JOINT RightUpLeg
	{
		OFFSET -4.47808 0.00000 0.00000
		CHANNELS 3 Xrotation Yrotation Zrotation
		JOINT RightLeg
		{
			OFFSET 0.00000 -16.40577 0.00000
			CHANNELS 3 Xrotation Yrotation Zrotation
			JOINT RightFoot
			{
				OFFSET 0.00000 -14.64414 0.00000
				CHANNELS 3 Xrotation Yrotation Zrotation
				JOINT RightToeBase
				{
					OFFSET 0.00000 -1.50274 5.60831
					CHANNELS 3 Xrotation Yrotation Zrotation
					End Site
					{
						OFFSET 0.00000 0.00000 2.95275
					}
				}
			}
		}
	}
	JOINT LeftUpLeg
	{
		OFFSET 4.47808 0.00000 0.00000
		CHANNELS 3 Xrotation Yrotation Zrotation
		JOINT LeftLeg
		{
			OFFSET 0.00000 -16.40577 0.00000
			CHANNELS 3 Xrotation Yrotation Zrotation
			JOINT LeftFoot
			{
				OFFSET 0.00000 -14.64414 0.00000
				CHANNELS 3 Xrotation Yrotation Zrotation
				JOINT LeftToeBase
				{
					OFFSET 0.00000 -1.50274 5.60831
					CHANNELS 3 Xrotation Yrotation Zrotation
					End Site
					{
						OFFSET 0.00000 0.00000 2.95275
					}
				}
			}
		}
	}
	JOINT Spine
	{
		OFFSET 0.00000 6.06821 0.00000
		CHANNELS 3 Xrotation Yrotation Zrotation
		JOINT RightShoulder
		{
			OFFSET 0.00000 10.01392 0.00000
			CHANNELS 3 Xrotation Yrotation Zrotation
			JOINT RightArm
			{
				OFFSET -7.19022 0.00000 0.00000
				CHANNELS 3 Xrotation Yrotation Zrotation
				JOINT RightForeArm
				{
					OFFSET -10.17747 0.00000 0.00000
					CHANNELS 3 Yrotation Zrotation Xrotation
					JOINT RightHand
					{
						OFFSET -8.39211 0.00000 0.00000
						CHANNELS 3 Xrotation Yrotation Zrotation
						End Site
						{
							OFFSET -3.93700 0.00000 0.00000
						}
						JOINT RightHandThumb1
						{
							OFFSET 0.00000 0.00000 0.00000
							CHANNELS 3 Xrotation Zrotation Yrotation
							End Site
							{
								OFFSET 0.00000 0.00000 3.93700
							}
						}
					}
				}
			}
		}
		JOINT LeftShoulder
		{
			OFFSET 0.00000 10.01392 0.00000
			CHANNELS 3 Xrotation Yrotation Zrotation
			JOINT LeftArm
			{
				OFFSET 7.19022 0.00000 0.00000
				CHANNELS 3 Xrotation Yrotation Zrotation
				JOINT LeftForeArm
				{
					OFFSET 10.17747 0.00000 0.00000
					CHANNELS 3 Yrotation Zrotation Xrotation
					JOINT LeftHand
					{
						OFFSET 8.39211 0.00000 0.00000
						CHANNELS 3 Xrotation Yrotation Zrotation
						End Site
						{
							OFFSET 3.93700 0.00000 0.00000
						}
						JOINT LeftHandThumb1
						{
							OFFSET 0.00000 0.00000 0.00000
							CHANNELS 3 Xrotation Zrotation Yrotation
							End Site
							{
								OFFSET 0.00000 0.00000 3.93700
							}
						}
					}
				}
			}
		}
		JOINT Head
		{
			OFFSET 0.00000 15.77748 0.00000
			CHANNELS 3 Xrotation Yrotation Zrotation
			End Site
			{
				OFFSET 0.00000 4.52755 0.00000
			}
		}
	}
}
MOTION
Frames: 23
Frame Time: 0.008333
 -0.9195 33.1074 -1.5626 9.1786 -1.0307 2.7178 -3.0000 -6.9612 -3.5222 -1.1709 0.0000 0.0000 -10.7050 -5.3113 2.7094 5.9430 0.0000 -0.0000 -3.9069 3.8143 4.2212 1.2776 0.0000 0.0000 -8.5595 6.9350 -14.6466 8.1089 -0.0000 0.0000 -9.3503 -1.7687 -2.3446 1.1423 -22.0169 -28.5129 -31.8980 2.9785 31.4332 6.9591 -0.0000 13.2936 -2.6666 10.7299 14.0448 32.8623 0.0000 -24.3270 -6.1442 23.3513 32.6008 -30.3157 -1.4167 -29.8571 1.9879 0.0000 26.1565 0.7270 3.4572 -11.8830 33.1476 -0.0000 26.2537 -7.2252 4.8584 3.0755
 -0.9183 33.1072 -1.5605 9.1797 -1.0083 2.7255 -2.9928 -6.9700 -3.5324 -1.1760 -0.0000 0.0000 -10.7099 -5.3243 2.6964 5.8755 -0.0000 0.0000 -3.8974 3.8175 4.2087 1.2522 0.0000 0.0000 -8.5419 6.9183 -14.6345 8.1352 -0.0000 0.0000 -9.3611 -1.7709 -2.3551 1.1701 -22.0241 -28.5182 -31.8386 3.0563 31.3749 6.9591 -0.0000 13.4109 -2.7018 10.6768 14.2902 32.8623 0.0000 -24.3270 -6.1343 23.3640 32.6015 -30.2825 -1.4979 -29.8498 1.9913 0.0000 26.1690 0.7393 3.4442 -12.1222 33.1476 -0.0000 26.2537 -7.2360 4.8400 3.0812
 -0.9172 33.1070 -1.5578 9.1776 -0.9886 2.7306 -2.9835 -6.9897 -3.5389 -1.1790 -0.0000 0.0000 -10.7251 -5.3358 2.7105 5.8897 0.0000 -0.0000 -3.8772 3.8198 4.1998 1.2134 -0.0000 -0.0000 -8.5163 6.8969 -14.6529 8.1011 0.0000 -0.0000 -9.3729 -1.7715 -2.3582 1.1611 -21.9998 -28.5382 -31.7460 3.1163 31.3029 6.9335 -0.0000 13.4964 -2.7551 10.7104 14.5172 32.8623 0.0000 -24.3270 -6.1359 23.3391 32.5956 -30.1364 -1.5931 -29.8185 1.9631 0.0000 26.2050 0.7157 3.2778 -12.3238 33.1476 -0.0000 26.2537 -7.2440 4.8257 3.0694
 -0.9182 33.1069 -1.5546 9.1768 -0.9770 2.7207 -2.9734 -7.0115 -3.5261 -1.1876 -0.0000 -0.0000 -10.6958 -5.2911 2.6496 5.7898 0.0000 -0.0000 -3.8513 3.8310 4.2116 1.1625 -0.0000 0.0000 -8.4926 6.8764 -14.6736 8.1296 -0.0000 -0.0000 -9.3859 -1.7577 -2.3523 1.1573 -21.9928 -28.5539 -31.6770 3.1625 31.2331 6.9179 -0.0000 13.6320 -2.7809 10.6867 14.6782 32.8623 0.0000 -24.3270 -6.0994 23.3403 32.5856 -30.0347 -1.7107 -29.8010 1.9651 0.0000 26.2406 0.6977 3.1741 -12.4041 33.1476 -0.0000 26.2537 -7.2483 4.8081 3.0658
 -0.9177 33.1068 -1.5507 9.1692 -0.9614 2.7217 -2.9590 -7.0080 -3.5278 -1.1827 -0.0000 0.0000 -10.6968 -5.3169 2.6289 5.7109 -0.0000 -0.0000 -3.8144 3.8249 4.2079 1.1078 0.0000 -0.0000 -8.4645 6.8678 -14.7026 8.1437 -0.0000 0.0000 -9.3889 -1.7581 -2.3557 1.1505 -21.9882 -28.5751 -31.6317 3.2081 31.1783 6.9138 -0.0000 13.6998 -2.7768 10.6164 14.7491 32.8623 0.0000 -24.3270 -6.1051 23.3368 32.5830 -29.9042 -1.8315 -29.7828 1.9375 0.0000 26.2779 0.7147 3.2191 -12.5254 33.1476 -0.0000 26.2537 -7.2607 4.7967 3.0674
 -0.9194 33.1062 -1.5489 9.1705 -0.9377 2.7152 -2.9565 -7.0165 -3.5183 -1.1757 -0.0000 -0.0000 -10.7104 -5.3283 2.6077 5.7258 -0.0000 0.0000 -3.7984 3.8280 4.2172 1.0633 0.0000 0.0000 -8.4371 6.8354 -14.7174 8.0699 -0.0000 -0.0000 -9.3952 -1.7610 -2.3600 1.1376 -21.9930 -28.5921 -31.5759 3.2617 31.1301 6.9048 -0.0000 13.7804 -2.7751 10.5924 14.7726 32.8623 0.0000 -24.3270 -6.1022 23.3327 32.5785 -29.7941 -1.9441 -29.7483 1.9403 0.0000 26.3277 0.6876 3.0844 -12.5731 33.1476 -0.0000 26.2537 -7.2838 4.7678 3.0701
 -0.9171 33.1056 -1.5429 9.1611 -0.9294 2.7185 -2.9300 -7.0085 -3.5253 -1.1871 0.0000 0.0000 -10.7237 -5.3523 2.6251 5.7781 0.0000 -0.0000 -3.7463 3.8459 4.2076 0.9903 -0.0000 0.0000 -8.4140 6.8063 -14.7091 8.1001 0.0000 -0.0000 -9.4028 -1.7551 -2.3582 1.1263 -21.9889 -28.6244 -31.5148 3.3074 31.0813 6.9038 -0.0000 13.8155 -2.7816 10.5871 14.8124 32.8623 0.0000 -24.3270 -6.0770 23.3432 32.5732 -29.6735 -2.0584 -29.7390 1.9002 0.0000 26.3390 0.7206 3.2066 -12.6722 33.1476 -0.0000 26.2537 -7.2848 4.7525 3.0592
 -0.9160 33.1051 -1.5390 9.1580 -0.9167 2.7186 -2.9240 -7.0102 -3.5286 -1.1743 -0.0000 -0.0000 -10.7419 -5.3604 2.6002 5.7790 -0.0000 0.0000 -3.7080 3.8682 4.2042 0.9219 0.0000 0.0000 -8.3792 6.7725 -14.7380 8.1116 -0.0000 -0.0000 -9.4113 -1.7517 -2.3556 1.1351 -22.0071 -28.6477 -31.5184 3.3397 31.0433 6.8948 -0.0000 13.8365 -2.7748 10.5371 14.8440 32.8623 0.0000 -24.3270 -6.0726 23.3325 32.5532 -29.5860 -2.1422 -29.6942 1.8778 0.0000 26.3970 0.7134 3.1713 -12.6853 33.1476 -0.0000 26.2537 -7.2949 4.7278 3.0400
 -0.9151 33.1047 -1.5348 9.1647 -0.8984 2.7181 -2.9217 -6.9894 -3.5313 -1.1683 -0.0000 -0.0000 -10.7506 -5.3932 2.5775 5.7205 -0.0000 -0.0000 -3.6789 3.8722 4.2015 0.8528 -0.0000 -0.0000 -8.3569 6.7604 -14.7497 8.1546 -0.0000 -0.0000 -9.4298 -1.7607 -2.3624 1.1319 -22.0289 -28.6753 -31.5241 3.3597 31.0320 6.9253 -0.0000 13.9893 -2.7485 10.4977 14.7612 32.8623 0.0000 -24.3270 -6.0864 23.3486 32.5597 -29.5034 -2.2384 -29.6663 1.8771 0.0000 26.3997 0.6869 3.0600 -12.6583 33.1476 -0.0000 26.2537 -7.3145 4.7120 3.0412
 -0.9151 33.1045 -1.5308 9.1612 -0.8771 2.7192 -2.9094 -7.0063 -3.5328 -1.1685 -0.0000 0.0000 -10.7598 -5.4001 2.5868 5.7444 0.0000 -0.0000 -3.6354 3.8671 4.1977 0.7726 -0.0000 -0.0000 -8.3131 6.7457 -14.7643 8.1451 0.0000 -0.0000 -9.4460 -1.7793 -2.3640 1.1281 -21.9960 -28.6885 -31.4680 3.3899 30.9654 6.8892 -0.0000 13.9339 -2.7858 10.5882 14.8323 32.8623 0.0000 -24.3270 -6.0763 23.3434 32.5304 -29.4266 -2.3152 -29.6078 1.8394 0.0000 26.4477 0.7028 3.1298 -12.6629 33.1476 -0.0000 26.2537 -7.2949 4.6988 3.0170
 -0.9147 33.1040 -1.5271 9.1701 -0.8544 2.7203 -2.9104 -6.9944 -3.5356 -1.1601 -0.0000 0.0000 -10.7815 -5.4350 2.5695 5.7464 -0.0000 -0.0000 -3.6103 3.8536 4.1959 0.7071 0.0000 0.0000 -8.2754 6.7336 -14.8122 8.1520 0.0000 0.0000 -9.4718 -1.7961 -2.3707 1.1105 -21.9810 -28.7192 -31.4283 3.3899 30.9413 6.9004 -0.0000 13.9215 -2.7993 10.6564 14.8114 32.8623 0.0000 -24.3270 -6.0901 23.3385 32.5314 -29.3571 -2.3685 -29.5667 1.7996 0.0000 26.4671 0.7178 3.1895 -12.6903 33.1476 -0.0000 26.2537 -7.2887 4.6776 3.0110
 -0.9150 33.1039 -1.5227 9.1723 -0.8276 2.7140 -2.9037 -7.0054 -3.5312 -1.1513 -0.0000 0.0000 -10.7882 -5.4512 2.5758 5.7545 -0.0000 -0.0000 -3.5849 3.8443 4.2014 0.6536 0.0000 0.0000 -8.2574 6.7048 -14.7874 8.1123 0.0000 -0.0000 -9.4864 -1.8096 -2.3750 1.1418 -22.0089 -28.7206 -31.4415 3.4092 30.9148 6.9076 -0.0000 13.8943 -2.7836 10.6449 14.7465 32.8623 0.0000 -24.3270 -6.0905 23.3477 32.5253 -29.3229 -2.4352 -29.5274 1.7742 0.0000 26.4042 0.7420 3.2782 -12.7603 33.1476 -0.0000 26.2537 -7.2973 4.6476 3.0096
 -0.9147 33.1034 -1.5195 9.1806 -0.8066 2.7151 -2.9068 -7.0073 -3.5338 -1.1447 0.0000 0.0000 -10.8031 -5.4704 2.5637 5.7526 -0.0000 -0.0000 -3.5696 3.8377 4.1985 0.6063 0.0000 0.0000 -8.2346 6.6872 -14.7977 8.1491 -0.0000 0.0000 -9.5039 -1.8252 -2.3833 1.1353 -22.0058 -28.7411 -31.4264 3.4054 30.8981 6.9365 -0.0000 13.7945 -2.7952 10.5917 14.8755 32.8623 0.0000 -24.3270 -6.0968 23.3564 32.5261 -29.3297 -2.4616 -29.4906 1.7476 0.0000 26.3887 0.7625 3.3339 -12.8907 33.1476 -0.0000 26.2537 -7.3066 4.6341 3.0030
 -0.9156 33.1030 -1.5161 9.1874 -0.7857 2.7083 -2.9100 -7.0433 -3.5274 -1.1372 -0.0000 0.0000 -10.8114 -5.4584 2.5831 5.7356 0.0000 -0.0000 -3.5564 3.8359 4.2043 0.5637 0.0000 0.0000 -8.2176 6.6870 -14.8364 8.1510 0.0000 0.0000 -9.5201 -1.8372 -2.3847 1.1200 -22.0083 -28.7547 -31.4140 3.4151 30.8856 6.9651 -0.0000 13.7909 -2.7850 10.5280 14.9084 32.8623 0.0000 -24.3270 -6.0998 23.3608 32.5288 -29.2944 -2.5011 -29.4515 1.7315 0.0000 26.3162 0.7519 3.2807 -12.9158 33.1476 -0.0000 26.2537 -7.3128 4.5974 2.9901
 -0.9162 33.1029 -1.5139 9.1954 -0.7518 2.7029 -2.9102 -7.0648 -3.5212 -1.1328 0.0000 0.0000 -10.8247 -5.4684 2.5628 5.7534 -0.0000 0.0000 -3.5603 3.8234 4.2088 0.5449 -0.0000 -0.0000 -8.2009 6.6554 -14.8123 8.1030 -0.0000 0.0000 -9.5356 -1.8564 -2.3931 1.1291 -22.0174 -28.7576 -31.4267 3.3988 30.8719 6.9871 -0.0000 13.7822 -2.7747 10.5014 14.8913 32.8623 0.0000 -24.3270 -6.0760 23.3718 32.5246 -29.3066 -2.5284 -29.4261 1.7059 0.0000 26.3149 0.7477 3.2429 -12.9910 33.1476 -0.0000 26.2537 -7.3202 4.5798 2.9897
 -0.9168 33.1026 -1.5119 9.1987 -0.7237 2.6964 -2.9063 -7.0654 -3.5152 -1.1296 0.0000 -0.0000 -10.8350 -5.4958 2.5370 5.7557 0.0000 0.0000 -3.5637 3.8200 4.2142 0.5388 -0.0000 -0.0000 -8.1976 6.6491 -14.8474 8.1306 0.0000 0.0000 -9.5415 -1.8619 -2.3967 1.1167 -22.0306 -28.7673 -31.4491 3.3797 30.8720 6.9915 -0.0000 13.8275 -2.7759 10.5190 14.8741 32.8623 0.0000 -24.3270 -6.0918 23.3448 32.5397 -29.2426 -2.5582 -29.4096 1.6843 0.0000 26.2955 0.7442 3.2154 -13.0383 33.1476 -0.0000 26.2537 -7.3269 4.5356 2.9821
 -0.9178 33.1022 -1.5100 9.2038 -0.6982 2.6871 -2.9081 -7.0901 -3.5060 -1.1201 -0.0000 -0.0000 -10.8389 -5.4947 2.5429 5.7753 0.0000 -0.0000 -3.5687 3.8086 4.2244 0.5308 -0.0000 -0.0000 -8.1933 6.6327 -14.8434 8.0957 -0.0000 -0.0000 -9.5482 -1.8751 -2.3996 1.1402 -22.0479 -28.7568 -31.4470 3.3901 30.8670 7.0154 -0.0000 13.8032 -2.7704 10.4916 14.8824 32.8623 0.0000 -24.3270 -6.0960 23.3487 32.5553 -29.1957 -2.6072 -29.4027 1.6812 0.0000 26.2686 0.7377 3.1719 -13.0994 33.1476 -0.0000 26.2537 -7.3418 4.5456 2.9676
 -0.9190 33.1021 -1.5085 9.2035 -0.6768 2.6819 -2.9070 -7.1002 -3.5013 -1.1082 0.0000 -0.0000 -10.8502 -5.5065 2.5571 5.7683 0.0000 0.0000 -3.5757 3.8079 4.2291 0.5406 -0.0000 0.0000 -8.2012 6.6259 -14.8565 8.1824 0.0000 0.0000 -9.5469 -1.8844 -2.4075 1.1292 -22.0427 -28.7572 -31.4379 3.3841 30.8719 7.0237 -0.0000 13.8109 -2.7711 10.4809 14.9002 32.8623 0.0000 -24.3270 -6.1014 23.3405 32.5711 -29.1642 -2.6288 -29.3932 1.6767 0.0000 26.2626 0.7354 3.1603 -13.1073 33.1476 -0.0000 26.2537 -7.3525 4.5037 2.9471
 -0.9197 33.1018 -1.5069 9.1981 -0.6550 2.6763 -2.8980 -7.1060 -3.4947 -1.1028 0.0000 -0.0000 -10.8587 -5.5336 2.5475 5.7865 -0.0000 -0.0000 -3.5825 3.8180 4.2340 0.5574 -0.0000 0.0000 -8.2165 6.5977 -14.8483 8.1793 -0.0000 0.0000 -9.5328 -1.8901 -2.4092 1.1268 -22.0552 -28.7660 -31.4157 3.3925 30.8939 7.0317 -0.0000 13.7881 -2.7749 10.4832 14.9167 32.8623 0.0000 -24.3270 -6.0830 23.3490 32.5702 -29.1717 -2.6353 -29.3884 1.6617 0.0000 26.2389 0.7504 3.2133 -13.1525 33.1476 -0.0000 26.2537 -7.3797 4.4878 2.9154
 -0.9206 33.1016 -1.5053 9.1899 -0.6261 2.6668 -2.8805 -7.1202 -3.4853 -1.1062 0.0000 -0.0000 -10.8561 -5.5453 2.5452 5.7502 -0.0000 -0.0000 -3.5899 3.8131 4.2440 0.5772 0.0000 0.0000 -8.2247 6.5752 -14.8506 8.1552 0.0000 0.0000 -9.5149 -1.9070 -2.4158 1.1455 -22.0822 -28.7494 -31.4520 3.3907 30.9198 7.0567 -0.0000 13.8265 -2.7319 10.3896 14.8207 32.8623 0.0000 -24.3270 -6.1044 23.3401 32.5951 -29.1822 -2.6170 -29.3927 1.6471 0.0000 26.2775 0.7411 3.1514 -13.2405 33.1476 -0.0000 26.2537 -7.4049 4.4568 2.9212
 -0.9216 33.1012 -1.5040 9.1803 -0.6099 2.6612 -2.8691 -7.1400 -3.4761 -1.1001 -0.0000 -0.0000 -10.8647 -5.5554 2.5330 5.7482 -0.0000 0.0000 -3.5953 3.8134 4.2497 0.6025 0.0000 0.0000 -8.2417 6.5680 -14.8585 8.1472 0.0000 -0.0000 -9.4953 -1.9126 -2.4263 1.1787 -22.1105 -28.7284 -31.4762 3.3974 30.9534 7.0751 -0.0000 13.7748 -2.7479 10.3734 14.9254 32.8623 0.0000 -24.3270 -6.1202 23.3382 32.6236 -29.1969 -2.5996 -29.4047 1.6346 0.0000 26.2777 0.7471 3.1674 -13.2792 33.1476 -0.0000 26.2537 -7.4323 4.4623 2.9340
 -0.9227 33.1008 -1.5030 9.1663 -0.5903 2.6551 -2.8534 -7.1648 -3.4693 -1.0951 0.0000 0.0000 -10.8728 -5.5575 2.5375 5.7522 0.0000 0.0000 -3.6023 3.8081 4.2555 0.6387 -0.0000 -0.0000 -8.2598 6.5701 -14.8639 8.1939 0.0000 -0.0000 -9.4655 -1.9175 -2.4343 1.2026 -22.1327 -28.6999 -31.5010 3.3920 30.9703 7.0773 -0.0000 13.8025 -2.7677 10.5118 14.8413 32.8623 0.0000 -24.3270 -6.1472 23.3221 32.6470 -29.2077 -2.5693 -29.4093 1.6204 0.0000 26.2648 0.7551 3.1910 -13.3196 33.1476 -0.0000 26.2537 -7.4580 4.4083 2.9297
 -0.9235 33.1005 -1.5019 9.1513 -0.5783 2.6502 -2.8353 -7.1791 -3.4640 -1.0922 -0.0000 -0.0000 -10.8800 -5.5542 2.5391 5.7429 0.0000 -0.0000 -3.6073 3.8208 4.2621 0.6717 -0.0000 0.0000 -8.2792 6.5405 -14.8412 8.1536 0.0000 0.0000 -9.4360 -1.9207 -2.4362 1.1887 -22.1159 -28.6909 -31.4634 3.3828 30.9854 7.1019 -0.0000 13.7787 -2.7797 10.5174 14.8953 32.8623 0.0000 -24.3270 -6.1334 23.3326 32.6463 -29.2592 -2.5305 -29.4110 1.5963 0.0000 26.2621 0.7573 3.1908 -13.3588 33.1476 -0.0000 26.2537 -7.4841 4.3789 2.9250
